<?xml version="1.0" encoding="UTF-8" standalone="no"?>
<svg xmlns="http://www.w3.org/2000/svg" xmlns:xlink="http://www.w3.org/1999/xlink" width="48" height="48">
  <defs>
    <linearGradient id="i">
      <stop offset="0" stop-color="#d5d5d5"/>
      <stop offset="1" stop-color="#747474"/>
    </linearGradient>
    <linearGradient id="d">
      <stop offset="0" stop-color="#fff"/>
      <stop offset="1" stop-color="#fff" stop-opacity="0"/>
    </linearGradient>
    <linearGradient id="c">
      <stop offset="0"/>
      <stop offset="1" stop-opacity=".48453608"/>
    </linearGradient>
    <linearGradient id="b">
      <stop offset="0"/>
      <stop offset="1" stop-opacity="0"/>
    </linearGradient>
    <linearGradient id="h">
      <stop offset="0" stop-color="#d5d5d5"/>
      <stop offset="1" stop-color="#a0a0a0"/>
    </linearGradient>
    <linearGradient id="g">
      <stop offset="0" stop-color="#fff"/>
      <stop offset="1" stop-color="#fff" stop-opacity="0"/>
    </linearGradient>
    <linearGradient id="a">
      <stop offset="0" stop-color="#c6c6c6"/>
      <stop offset="1" stop-color="#c6c6c6" stop-opacity="0"/>
    </linearGradient>
    <linearGradient id="f">
      <stop offset="0"/>
      <stop offset="1" stop-opacity="0"/>
    </linearGradient>
    <linearGradient id="e">
      <stop offset="0" stop-color="#b0b0b0"/>
      <stop offset="1" stop-color="#747474"/>
    </linearGradient>
    <linearGradient xlink:href="#a" id="l" x1="41.25" x2="48.25" y1="36.689548" y2="35.689548" gradientUnits="userSpaceOnUse"/>
    <linearGradient xlink:href="#b" id="q" x1="25.160467" x2="33.96875" y1="15.803662" y2="20.4375" gradientUnits="userSpaceOnUse"/>
    <linearGradient xlink:href="#b" id="r" x1="25.160467" x2="33.96875" y1="15.803662" y2="20.4375" gradientUnits="userSpaceOnUse"/>
    <linearGradient xlink:href="#b" id="o" x1="25.160467" x2="33.96875" y1="15.803662" y2="20.4375" gradientUnits="userSpaceOnUse"/>
    <linearGradient xlink:href="#b" id="p" x1="25.160467" x2="33.96875" y1="15.803662" y2="20.4375" gradientUnits="userSpaceOnUse"/>
    <linearGradient xlink:href="#b" id="t" x1="25.160467" x2="33.96875" y1="15.803662" y2="20.4375" gradientUnits="userSpaceOnUse"/>
    <linearGradient xlink:href="#c" id="u" x1="18.328718" x2="14.40625" y1="15.323075" y2="14.046875" gradientUnits="userSpaceOnUse"/>
    <linearGradient xlink:href="#c" id="v" x1="18.328718" x2="14.40625" y1="15.323075" y2="14.046875" gradientUnits="userSpaceOnUse"/>
    <linearGradient xlink:href="#c" id="y" x1="18.328718" x2="14.40625" y1="15.323075" y2="14.046875" gradientUnits="userSpaceOnUse"/>
    <linearGradient xlink:href="#c" id="x" x1="18.328718" x2="14.40625" y1="15.323075" y2="14.046875" gradientUnits="userSpaceOnUse"/>
    <linearGradient xlink:href="#c" id="w" x1="18.328718" x2="14.40625" y1="15.323075" y2="14.046875" gradientUnits="userSpaceOnUse"/>
    <linearGradient xlink:href="#d" id="z" x1="16.4375" x2="17.402376" y1="49.110714" y2="43.420425" gradientUnits="userSpaceOnUse"/>
    <radialGradient xlink:href="#e" id="k" cx="15.4375" cy="42.090427" r="11.1875" fx="15.4375" fy="42.090427" gradientTransform="matrix(1 0 0 .52514 0 22.02165)" gradientUnits="userSpaceOnUse"/>
    <radialGradient xlink:href="#f" id="j" cx="25.1875" cy="41" r="16.4375" fx="25.1875" fy="41" gradientTransform="matrix(1 0 0 .42586 0 23.53992)" gradientUnits="userSpaceOnUse"/>
    <radialGradient xlink:href="#g" id="n" cx="20.275276" cy="5.7119732" r="12.494026" fx="20.275276" fy="5.7119732" gradientTransform="matrix(2.53075 0 0 2.296 -31.03641 -6.699856)" gradientUnits="userSpaceOnUse"/>
    <radialGradient xlink:href="#h" id="m" cx="19.557497" cy="6.644074" r="10.98921" fx="19.557497" fy="6.644074" gradientTransform="matrix(1.49192 -.08445 -.05874 3.98672 -9.646804 -20.27595)" gradientUnits="userSpaceOnUse"/>
    <radialGradient xlink:href="#i" id="s" cx="33.499996" cy="20.538168" r="2.2697367" fx="33.499996" fy="20.538168" gradientTransform="translate(18.91658 12.49341) scale(.43533)" gradientUnits="userSpaceOnUse"/>
  </defs>
  <g color="#000">
    <path fill="url(#j)" fill-rule="evenodd" d="M41.625 41A16.4375 7 0 1 1 8.75 41a16.4375 7 0 1 1 32.875 0z" opacity=".49431818" overflow="visible" style="marker:none" transform="matrix(1.10646 0 0 1.04464 -2.681557 -2.517857)"/>
    <path fill="url(#k)" fill-rule="evenodd" stroke="#424242" d="M27.625 46.375a11.1875 5.875 0 1 1-22.375 0 11.1875 5.875 0 1 1 22.375 0z" overflow="visible" style="marker:none" transform="translate(8.75 -7)"/>
    <path fill="#424242" fill-rule="evenodd" d="M35.375 22.125a1.875 1.875 0 1 1-3.75 0 1.875 1.875 0 1 1 3.75 0z" overflow="visible" style="marker:none" transform="matrix(2.06667 0 0 1.26667 -43.98333 9.475)"/>
    <path fill="none" stroke="url(#l)" d="M20.25 31.375s.735875 3.40224 3 3.125c6.125-.75 5.471362-.489507 9.875.875 4.4375 1.375 2.09375 3.59375 6.625 4s4.125-3.625 8-3.875" overflow="visible" style="marker:none"/>
    <rect width="22.136791" height="30.692028" x="16.028919" y="-4.0142608" fill="url(#m)" fill-rule="evenodd" stroke="#7c7c7c" stroke-width="1.00015199" overflow="visible" rx="6.6936979" ry="6.6936979" style="marker:none" transform="matrix(.97073 .24016 -.26401 .96452 0 0)"/>
    <rect width="19.862064" height="28.524395" x="17.210075" y="-3.006144" fill="none" stroke="#fff" stroke-width="1.00015211" opacity=".30681817" overflow="visible" rx="5.4198565" ry="5.4198565" style="marker:none" transform="matrix(.97073 .24016 -.26401 .96452 0 0)"/>
    <path fill="url(#n)" fill-rule="evenodd" d="M20.09375 1.96875c-2.221088.3524544-4.150517 2.0395076-4.78125 4.34375l-4.84375 17.84375c2.856946 1.404105 6.63761.46875 10.21875.46875.490008 0 .988068-.001525 1.46875-.03125-.935141-.227563-2.3125-.5625-2.3125-.5625-.219863-.059544-.421184-.135194-.5625-.25-.004732-.004063-.026661-.02708-.03125-.03125-.013326-.012839-.046935-.046266-.0625-.0625-.005656-.005536-.025635-.025683-.03125-.03125-.008223-.015858-.024946-.050086-.03125-.0625-.009672-.024338-.024727-.071935-.03125-.09375.000196-.003099-.000061-.028513 0-.03125-.005831-.010782-.025626-.051558-.03125-.0625.000071-.00614.000047-.027252 0-.03125.00023-.017865-.000033-.050975 0-.0625-.000106-.006045-.000317-.02762 0-.03125-.000109-.003166.000011-.028475 0-.03125.00812-.036225.024662-.093483.03125-.125.005258-.010265.025404-.051245.03125-.0625.000001-.002859.000263-.028174 0-.03125.007615-.024571.022324-.071476.03125-.09375.008073-.016461.026151-.052467.03125-.0625.024765-.045151.063255-.117676.09375-.15625.00642-.006485.026991-.026988.03125-.03125.011249-.005511.052215-.02625.0625-.03125.028556-.017152.089338-.047698.125-.0625.010877.000154.051519-.000315.0625 0-.000181-.001746-.000054-.024234 0-.03125.007012-.000058.029479-.000206.03125 0 .174833-.03267.396484-.006836.625.03125l5.9375 1.375c1.190295-.291143 2.327227-.690228 3.40625-1.15625-.152403-.086134-.317465-.140846-.46875-.1875-.037369-.01082-.087891-.023438-.125-.03125l-8.21875-2c-.219863-.059544-.444213-.135194-.59375-.25-.005004-.004063-.026402-.02708-.03125-.03125-.00452-.004392-.0269-.026743-.03125-.03125-.004175-.004624-.027255-.026506-.03125-.03125-.005417-.010627-.026268-.051586-.03125-.0625-.005702-.005502-.025599-.025714-.03125-.03125.000313-.003191-.000092-.02849 0-.03125-.00573-.010884-.025748-.051468-.03125-.0625.000171-.003099-.000058-.028513 0-.03125-.000031-.010782-.000219-.051558 0-.0625-.000729-.02153-.001669-.0707 0-.09375.000042-.003535.000139-.027287 0-.03125-.000708-.013007-.000847-.05144 0-.0625-.000144-.003434.000022-.02842 0-.03125.005744-.011149.02592-.052118.03125-.0625.008789-.027832.021637-.068345.03125-.09375.005304-.010637.025717-.051774.03125-.0625.017123-.036329.044377-.093567.0625-.125.01442-.020961.04488-.07032.0625-.09375.004578-.004874.026581-.026589.03125-.03125.006417-.006485.026992-.026988.03125-.03125.011293-.005512.052246-.02625.0625-.03125.015892-.008257.049934-.02514.0625-.03125.008514-.003809.045935-.023033.0625-.03125.003157.000244.028502-.000071.03125 0 .00428-.004241.024733-.02481.03125-.03125.00278.000058.027996-.000165.03125 0 .007153-.00702.029919-.029498.03125-.03125.003255.00016.02847-.000058.03125 0 .006359.000124.028247.000121.03125 0 .144148-.005795.322022.032837.5.0625l8.3125 1.9375c.619385.172852 1.187319.608795 1.625 1.03125.513762-.273253.991279-.594876 1.46875-.90625-.145645-.194998-1.330445-1.699487-2.40625-2.03125-.037369-.01082-.087891-.023438-.125-.03125l-8.21875-2c-.219863-.059544-.444213-.135194-.59375-.25-.005004-.004063-.026402-.02708-.03125-.03125-.00452-.004392-.0269-.026743-.03125-.03125-.004175-.004624-.027255-.026506-.03125-.03125-.005417-.010627-.026268-.051586-.03125-.0625-.005702-.005502-.025599-.025714-.03125-.03125.000313-.003191-.000092-.02849 0-.03125-.00573-.010884-.025748-.051468-.03125-.0625.000171-.003099-.000058-.028513 0-.03125-.000031-.010782-.000219-.051558 0-.0625-.000729-.02153-.001669-.0707 0-.09375.000042-.003535.000139-.027287 0-.03125-.000708-.013007-.000847-.05144 0-.0625-.000144-.003434.000022-.02842 0-.03125.005744-.011149.02592-.052118.03125-.0625.008789-.027832.021637-.068345.03125-.09375.005304-.010637.025717-.051774.03125-.0625.017123-.036329.044377-.093567.0625-.125.01442-.020961.04488-.07032.0625-.09375.004578-.004874.026581-.026589.03125-.03125.006417-.006485.026992-.026987.03125-.03125.011293-.005512.052246-.02625.0625-.03125.015892-.008257.049934-.02514.0625-.03125.00549-.005728.025737-.025566.03125-.03125.010929.000172.051479-.000336.0625 0 .00428-.004241.024733-.02481.03125-.03125.00278.000058.027996-.000164.03125 0 .007153-.007021.029919-.029497.03125-.03125.003255.00016.02847-.000058.03125 0 .006359.000124.028247.00012.03125 0 .144148-.005795.322022.032837.5.0625l8.3125 1.9375c1.34375.375 2.46875 2 2.46875 2l-.40625 1.5625c.184167-.120101.38407-.218251.5625-.34375l2.59375-9.53125c.841411-3.0739177-.960374-6.1464999-4.03125-6.90625L22.375 2.125c-.59978-.1483887-1.193247-.1974441-1.78125-.15625-.003549.0002486-.025165.0000782-.03125 0-.012896-.0002549-.050049.0006017-.0625 0-.006275-.0002183-.024819.000023-.03125 0-.003047-.000062-.02464.0000287-.03125 0-.03001.0008403-.09506-.001239-.125 0-.009264.0003783-.046295.0002411-.0625 0-.003827-.0000514-.027145-.0002325-.03125 0-.010618-.0001801-.05189.0001383-.0625 0-.010629-.0001889-.05188.0001477-.0625 0zm-4.5 5.21875L20.5 8.15625c.19043.0585938.39146.1451941.53125.28125.00453.0046471.026856.0264893.03125.03125.004255.004876.02714.026257.03125.03125.00534.0105888.026267.0516368.03125.0625.005679.0054894.025614.0257289.03125.03125.010089.024615.023528.0713867.03125.09375.00877.0285534.024838.0895606.03125.125-.000078.0061214-.000052.0272544 0 .03125-.000251.0177309.000038.0507486 0 .0625.000354.0283607.001998.0952188 0 .125.000143.0034323-.000017.0284221 0 .03125-.005724.0111106-.025782.0516663-.03125.0625-.007238.0275056-.022658.0684845-.03125.09375.000284.0030773-.000034.0283694 0 .03125-.005664.0114818-.02584.0524108-.03125.0625-.007125.0144531-.023603.0489686-.03125.0625-.005593.0054857-.025626.0258203-.03125.03125-.005262.0110935-.025871.0516247-.03125.0625-.004542.0054422-.026598.0260197-.03125.03125-.00476.0050208-.026385.0264362-.03125.03125-.004967.0046092-.026183.0268429-.03125.03125-.010621.0053443-.051672.0263438-.0625.03125-.005501.005674-.025728.0256228-.03125.03125-.021068.0087196-.072012.0241388-.09375.03125-.024225.008696-.068547.0252162-.09375.03125-.165238.0350536-.353516.0195312-.53125-.03125l-4.9375-1.0625.40625-1.40625zm7.8125 1.59375c.003255.0001604.02847-.0000578.03125 0 .006359.0001235.028247.0001207.03125 0 .144148-.0057954.322022.0328369.5.0625l8.3125 1.9375c1.34375.375 2.21875 1.75 2.21875 1.75l-.34375 1.53125c-.145645-.194998-1.142945-1.418237-2.21875-1.75-.037369-.01082-.087891-.023437-.125-.03125l-8.21875-2c-.219863-.059544-.444213-.135194-.59375-.25-.005004-.004063-.026402-.02708-.03125-.03125-.00452-.0043919-.0269-.0267433-.03125-.03125-.004175-.004624-.027255-.0265062-.03125-.03125-.005417-.0106269-.026268-.051586-.03125-.0625-.005702-.0055019-.025599-.0257143-.03125-.03125.000313-.0031906-.000092-.0284905 0-.03125-.00573-.0108845-.025748-.0514685-.03125-.0625.000171-.0030987-.000058-.0285126 0-.03125-.000031-.0107822-.000219-.0515579 0-.0625-.000729-.0215296-.001669-.0707003 0-.09375.000042-.0035354.000139-.0272868 0-.03125-.000708-.0130072-.000847-.0514402 0-.0625-.000144-.0034343.000022-.0284196 0-.03125.005744-.0111487.02592-.0521182.03125-.0625.008789-.027832.021637-.0683448.03125-.09375.005304-.0106375.025717-.0517736.03125-.0625.017123-.0363289.044377-.0935674.0625-.125.01442-.0209609.04488-.0703199.0625-.09375.004578-.0048742.026581-.0265887.03125-.03125.006417-.0064851.026992-.0269874.03125-.03125.011293-.0055118.052246-.0262505.0625-.03125.015892-.0082567.049934-.0251394.0625-.03125.00549-.0057276.025737-.0255656.03125-.03125.010929.0001718.051479-.0003363.0625 0 .00428-.0042413.024733-.0248097.03125-.03125.00278.000058.027996-.0001645.03125 0 .007153-.0070205.029919-.0294974.03125-.03125zM14.6875 10.5625l4.90625.96875c.19043.058594.39146.145194.53125.28125.00453.004647.026856.026489.03125.03125.004255.004876.02714.026257.03125.03125.00534.010589.026267.051637.03125.0625.005679.005489.025614.025729.03125.03125-.00018.001583-.000058.024177 0 .03125.005657.01087.025788.051496.03125.0625.007016.022843.024492.066873.03125.09375.000173.003462-.000039.027247 0 .03125-.000429.017843-.000329.050977 0 .0625-.000076.023503.002363.068849 0 .09375-.005257.042295-.019043.109863-.03125.15625.000087.002663-.000311.028474 0 .03125-.012705.030039-.048502.097146-.0625.125-.006856.014921-.023861.04851-.03125.0625-.005303.011014-.025822.051711-.03125.0625-.005579.005513-.025642.025792-.03125.03125-.035429.045253-.08293.092918-.125.125-.005511.005651-.025717.025647-.03125.03125-.015853.008213-.049519.024772-.0625.03125-.008768.004048-.045977.023066-.0625.03125-.003145-.000261-.028506.000076-.03125 0-.010909.005732-.051532.025682-.0625.03125-.165238.035054-.353516.019531-.53125-.03125l-4.9375-1.0625.40625-1.40625zM22.5 12.21875c.003255.00016.02847-.000058.03125 0 .006359.000124.028247.000121.03125 0 .144148-.005795.322022.032837.5.0625l8.3125 1.9375c1.34375.375 2.09375 1.65625 2.09375 1.65625l-.3125 1.4375c-.145645-.194998-1.049195-1.230737-2.125-1.5625-.037369-.01082-.087891-.023438-.125-.03125l-8.21875-2c-.219863-.059544-.444213-.135194-.59375-.25-.005004-.004063-.026402-.02708-.03125-.03125-.00452-.004392-.0269-.026743-.03125-.03125-.004175-.004624-.027255-.026506-.03125-.03125-.005417-.010627-.026268-.051586-.03125-.0625-.005702-.005502-.025599-.025714-.03125-.03125.000313-.003191-.000092-.02849 0-.03125-.00573-.010884-.025748-.051469-.03125-.0625.000171-.003099-.000058-.028513 0-.03125-.000031-.010782-.000219-.051558 0-.0625-.000729-.02153-.001669-.0707 0-.09375.000042-.003535.000139-.027287 0-.03125-.000708-.013007-.000847-.05144 0-.0625-.000144-.003434.000022-.02842 0-.03125.005744-.011149.02592-.052118.03125-.0625.008789-.027832.021637-.068345.03125-.09375.005304-.010637.025717-.051774.03125-.0625.017123-.036329.044377-.093567.0625-.125.01442-.020961.04488-.07032.0625-.09375.004578-.004874.026581-.026589.03125-.03125.006417-.006485.026992-.026987.03125-.03125.011293-.005512.052246-.02625.0625-.03125.015892-.008257.049934-.025139.0625-.03125.008514-.003809.045935-.023033.0625-.03125.003157.000244.028502-.000071.03125 0 .00428-.004241.024733-.02481.03125-.03125.00278.000058.027996-.000164.03125 0 .007153-.00702.029919-.029497.03125-.03125zm-8.75 1.71875 4.90625 1c.138855.042724.284631.109547.40625.1875.011048.005277.051573.025845.0625.03125.005531.005563.025753.025653.03125.03125.005322.004685.026077.026423.03125.03125.013172.013055.046691.046312.0625.0625.005646.005513.025644.025706.03125.03125-.00018.003442.000056.028404 0 .03125.005535.011052.025692.0521.03125.0625.005727.005456.025571.025761.03125.03125.011032.031947.025499.089545.03125.125.00003.010722.000203.05163 0 .0625.000658.023047.001586.06932 0 .09375.000084.00321.000001.028447 0 .03125-.007809.036566-.024182.095106-.03125.125.00023.003131-.000026.028491 0 .03125-.014187.031516-.048656.096238-.0625.125-.008073.016319-.025988.051613-.03125.0625-.005385.010556-.0231.046389-.03125.0625-.005144.011056-.026086.052247-.03125.0625-.025256.029485-.067147.070612-.09375.09375-.005522.005627-.025704.025672-.03125.03125-.005511.005651-.025717.025647-.03125.03125-.015853.008213-.049519.024772-.0625.03125-.008768.004048-.045977.023066-.0625.03125-.003145-.000261-.028506.000076-.03125 0-.179334.053252-.395508.056641-.59375 0l-4.9375-1.125.40625-1.375zm-.875 3.34375 4.90625 1.0625c.222168.06836.455112.196095.59375.375.005646.005513.025644.025706.03125.03125.008174.01577.024578.049319.03125.0625.009883.024767.024234.070907.03125.09375.005768.010797.025696.051561.03125.0625-.000001.010741.000229.051613 0 .0625-.000059.006109-.000064.027262 0 .03125-.000069.017618.000412.050518 0 .0625.000071.003218.000012.02844 0 .03125.000161.003065-.000024.028506 0 .03125-.003502.011808-.026421.049679-.03125.0625-.001328.00381.001014.027879 0 .03125.000287.002757-.000054.028597 0 .03125-.008445.03209-.021224.09194-.03125.125-.031514.079363-.080713.162183-.125.21875-.004542.005442-.026598.02602-.03125.03125-.00476.005021-.026385.026436-.03125.03125-.004967.004609-.026183.026843-.03125.03125-.005522.005627-.025704.025672-.03125.03125-.010594.005411-.051711.026266-.0625.03125-.005491.005696-.025739.025599-.03125.03125-.02478.009723-.072325.024236-.09375.03125-.010909-.000127-.051532.000291-.0625 0-.165238.035054-.353516.019531-.53125-.03125l-4.9375-1.15625.40625-1.40625zm-.96875 3.375 4.90625 1.0625c.19043.058594.39146.145194.53125.28125.00453.004647.026856.026489.03125.03125.004255.004876.02714.026257.03125.03125.00534.010589.026267.051637.03125.0625.005679.005489.025614.025729.03125.03125.010089.024615.023528.071387.03125.09375.00877.028553.024838.08956.03125.125.000521.005537-.000104.023259 0 .03125-.000251.017731.000038.050749 0 .0625.000354.028361.001998.095219 0 .125-.000995.003658.001291.027325 0 .03125-.004725.012499-.027548.051109-.03125.0625-.007238.027506-.022658.068485-.03125.09375-.007898.021467-.021952.069456-.03125.09375-.007125.014453-.023603.048969-.03125.0625-.005593.005486-.025626.02582-.03125.03125-.005262.011094-.025871.051625-.03125.0625-.004542.005442-.026598.02602-.03125.03125-.00476.005021-.026385.026436-.03125.03125-.004967.004609-.026183.026843-.03125.03125-.010621.005344-.051672.026344-.0625.03125-.005501.005674-.025728.025623-.03125.03125-.021068.008719-.072012.024139-.09375.03125-.024225.008696-.068547.025216-.09375.03125-.165238.035054-.353516.019531-.53125-.03125L11.5 22.0625l.40625-1.40625z" opacity=".44318182" overflow="visible" style="marker:none"/>
    <path fill="url(#o)" fill-rule="evenodd" d="m22.28125 15.84375 8.3125 1.9375c1.34375.375 2.46875 2 2.46875 2l-.40625 1.59375s-1.34375-1.84375-2.53125-2.09375l-8.21875-2c-.485214-.131407-.934884-.320784-.75-.90625.1875-.59375.5625-.625 1.125-.53125z" overflow="visible" style="marker:none"/>
    <path fill="#747474" fill-rule="evenodd" stroke="#424242" d="m31.5 19-.125 15.375v.0625c.087702 1.40324-1.095769 2.637096-2.25 2.40625L18.65625 34.6875c-.46875-.125-1.71875-.625-1.3125-2.0625l-1.9375-.5c-.678757 2.436693 1.25 4.15625 2.6875 4.46875L28.75 38.78125c2.574613.514923 4.747942-1.833968 4.625-4.40625-.00101-.021136.001323-.041337 0-.0625L33.5 19h-2z" overflow="visible" style="marker:none"/>
    <path fill="url(#p)" fill-rule="evenodd" d="m21.25 19.28125 8.3125 1.9375c1.34375.375 2.46875 2 2.46875 2L31.625 24.8125s-1.34375-1.84375-2.53125-2.09375l-8.21875-2c-.485214-.131407-.934884-.320784-.75-.90625.1875-.59375.5625-.625 1.125-.53125z" overflow="visible" style="marker:none"/>
    <path fill="url(#q)" fill-rule="evenodd" d="m24.09375 8.9687499 8.3125 1.9375001c1.34375.375 2.0625 1.5 2.0625 1.5L34.0625 14s-.9375-1.34375-2.125-1.59375l-8.21875-2c-.485214-.131407-.934884-.320784-.75-.9062501.1875-.59375.5625-.625 1.125-.53125z" overflow="visible" style="marker:none"/>
    <path fill="url(#r)" fill-rule="evenodd" d="m23.1875 12.40625 8.3125 1.9375c1.34375.375 2.0625 1.5625 2.0625 1.5625l-.4375 1.5s-.90625-1.3125-2.09375-1.5625l-8.21875-2c-.485214-.131407-.934884-.320784-.75-.90625.1875-.59375.5625-.625 1.125-.53125z" overflow="visible" style="marker:none"/>
    <path fill="url(#s)" fill-rule="evenodd" stroke="#424242" stroke-width=".78947348" d="M35.375 22.125a1.875 1.875 0 1 1-3.75 0 1.875 1.875 0 1 1 3.75 0z" overflow="visible" style="marker:none" transform="translate(-10.30833 -8.15) scale(1.26667)"/>
    <path fill="url(#t)" fill-rule="evenodd" d="m20.34375 22.71875 8.3125 1.9375c1.34375.375 2.46875 2 2.46875 2L30.71875 28.25s-1.34375-1.84375-2.53125-2.09375l-8.21875-2c-.485214-.131407-.872384-.320784-.75-.90625.123851-.592482.5625-.625 1.125-.53125z" overflow="visible" style="marker:none"/>
    <path fill="url(#u)" fill-rule="evenodd" d="M16.5625 23.34375 11.625 22.1875l.40625-1.40625 4.90625 1.0625c.40625.125.84375.375.6875.96875-.154418.586787-.625.65625-1.0625.53125z" overflow="visible" style="marker:none"/>
    <path fill="url(#v)" fill-rule="evenodd" d="m17.53125 19.976562-4.9375-1.15625L13 17.414062l4.90625 1.0625c.40625.125.84375.375.6875.96875-.154418.586788-.625.65625-1.0625.53125z" overflow="visible" style="marker:none"/>
    <path fill="url(#w)" fill-rule="evenodd" d="m18.40625 16.546875-4.9375-1.09375.40625-1.40625 4.90625 1c.40625.125.84375.375.6875.96875-.154418.586787-.625.65625-1.0625.53125z" overflow="visible" style="marker:none"/>
    <path fill="url(#x)" fill-rule="evenodd" d="m19.34375 13.148438-4.9375-1.0625.40625-1.40625 4.90625.96875c.40625.125.84375.375.6875.96875-.154418.586786-.625.65625-1.0625.53125z" overflow="visible" style="marker:none"/>
    <path fill="url(#y)" fill-rule="evenodd" d="m20.25 9.78125-4.9375-1.0625.40625-1.40625 4.90625.96875c.40625.125.84375.375.6875.96875-.154418.586787-.625.65625-1.0625.53125z" overflow="visible" style="marker:none"/>
    <path fill="none" stroke="url(#z)" stroke-width="1.1623852" d="M27.625 46.375a11.1875 5.875 0 1 1-22.375 0 11.1875 5.875 0 1 1 22.375 0z" opacity=".29545455" overflow="visible" style="marker:none" transform="matrix(.9163 0 0 .80773 10.12589 1.916708)"/>
  </g>
</svg>