<?xml version="1.0" encoding="UTF-8" standalone="no"?>
<svg xmlns="http://www.w3.org/2000/svg" xmlns:xlink="http://www.w3.org/1999/xlink" width="48" height="48" version="1.0">
  <defs>
    <linearGradient id="g">
      <stop offset="0" stop-color="#fff"/>
      <stop offset="1" stop-color="#fff" stop-opacity="0"/>
    </linearGradient>
    <linearGradient id="n">
      <stop offset="0" stop-color="#3465a4"/>
      <stop offset="1" stop-color="#3465a4" stop-opacity="0"/>
    </linearGradient>
    <linearGradient id="f">
      <stop offset="0" stop-color="#fff"/>
      <stop offset="1" stop-color="#fff" stop-opacity="0"/>
    </linearGradient>
    <linearGradient id="e">
      <stop offset="0" stop-color="#6f726f"/>
      <stop offset="1" stop-color="#6f726f" stop-opacity="0"/>
    </linearGradient>
    <linearGradient id="d">
      <stop offset="0" stop-color="#eaeae9"/>
      <stop offset="1" stop-color="#a5a7a2"/>
    </linearGradient>
    <linearGradient id="h">
      <stop offset="0" stop-color="#d3d7cf"/>
      <stop offset="1" stop-color="#555753"/>
    </linearGradient>
    <linearGradient id="a">
      <stop offset="0" stop-color="#2e3436"/>
      <stop offset="1" stop-color="#babdb6"/>
    </linearGradient>
    <linearGradient xlink:href="#a" id="A" x1="-.51990569" x2="-.51990569" y1="-.51990569" y2="19.269905" gradientUnits="userSpaceOnUse"/>
    <linearGradient id="i">
      <stop offset="0" stop-color="#d3d7cf"/>
      <stop offset="1" stop-color="#555753"/>
    </linearGradient>
    <linearGradient id="j">
      <stop offset="0" stop-color="#eeeeec"/>
      <stop offset="1" stop-color="#888a85"/>
    </linearGradient>
    <linearGradient id="b">
      <stop offset="0" stop-color="#2e3436"/>
      <stop offset="1" stop-color="#888a85"/>
    </linearGradient>
    <linearGradient xlink:href="#b" id="x" x1="17.0625" x2="20.3125" y1="34.950001" y2="5.375" gradientUnits="userSpaceOnUse"/>
    <linearGradient id="k">
      <stop offset="0" stop-color="#eeeeec"/>
      <stop offset="1" stop-color="#555753"/>
    </linearGradient>
    <linearGradient id="m">
      <stop offset="0" stop-color="#fff" stop-opacity="0"/>
      <stop offset="1" stop-color="#fff"/>
    </linearGradient>
    <linearGradient id="l">
      <stop offset="0"/>
      <stop offset="1" stop-opacity="0"/>
    </linearGradient>
    <linearGradient xlink:href="#c" id="s" x1="56.302975" x2="56.609135" y1="4.9369388" y2="8.6796741" gradientTransform="translate(-88.34438 10.67235) scale(1.76991)" gradientUnits="userSpaceOnUse"/>
    <linearGradient id="c">
      <stop offset="0" stop-color="#eeeeec"/>
      <stop offset="1" stop-color="#8a8c87"/>
    </linearGradient>
    <linearGradient xlink:href="#d" id="p" x1="7.5763841" x2="7.3215322" y1="20.301662" y2="27.345011" gradientUnits="userSpaceOnUse"/>
    <linearGradient xlink:href="#d" id="q" x1="7.5763841" x2="7.3215322" y1="20.301662" y2="27.345011" gradientUnits="userSpaceOnUse"/>
    <linearGradient xlink:href="#e" id="t" x1="11.125889" x2="9.346509" y1="25.559732" y2="25.736509" gradientTransform="translate(-4.978245 -7.324566) scale(1.29618)" gradientUnits="userSpaceOnUse"/>
    <linearGradient xlink:href="#f" id="r" x1="4.6831215" x2="8.3712559" y1="24.665476" y2="24.317278" gradientUnits="userSpaceOnUse"/>
    <linearGradient xlink:href="#g" id="u" x1="9.485774" x2="7.378232" y1="22.107626" y2="22.637957" gradientUnits="userSpaceOnUse"/>
    <radialGradient xlink:href="#h" id="B" cx="6.8797626" cy="7.1986876" r="9.375" fx="6.8797626" fy="7.1986876" gradientTransform="matrix(1.24075 0 0 1.15763 -1.713645 -1.134736)" gradientUnits="userSpaceOnUse"/>
    <radialGradient xlink:href="#i" id="z" cx="12.704856" cy="13.847466" r="9.375" fx="12.704856" fy="13.847466" gradientTransform="matrix(.0637 -1.42447 1.5473 .06921 -9.530629 30.98681)" gradientUnits="userSpaceOnUse"/>
    <radialGradient xlink:href="#j" id="y" cx="-1.0016617" cy=".99004257" r="9.9205227" fx="-1.0016617" fy=".99004257" gradientTransform="matrix(-.31003 2.11086 -2.08277 -.30587 17.75288 16.41459)" gradientUnits="userSpaceOnUse"/>
    <radialGradient xlink:href="#k" id="w" cx="-1.0016617" cy=".99004257" r="9.9205227" fx="-1.0016617" fy=".99004257" gradientTransform="matrix(-.12758 1.41606 -1.63014 -.14685 17.48751 15.56121)" gradientUnits="userSpaceOnUse"/>
    <radialGradient xlink:href="#l" id="o" cx="6.4081554" cy="17.403807" r="5.524272" fx="6.4081554" fy="17.403807" gradientTransform="matrix(1 0 0 .416 0 10.16382)" gradientUnits="userSpaceOnUse"/>
    <radialGradient xlink:href="#m" id="v" cx="5.0822492" cy="12.516305" r="2.9831069" fx="5.0822492" fy="12.516305" gradientTransform="matrix(1.5258 0 0 1.76896 -.08162983 6.066255)" gradientUnits="userSpaceOnUse"/>
    <radialGradient xlink:href="#n" id="C" cx="36.82843" cy="24.427677" r="1.2404949" fx="36.82843" fy="24.427671" gradientTransform="matrix(13.39869 0 0 22.22678 -456.6246 -518.5208)" gradientUnits="userSpaceOnUse"/>
    <radialGradient xlink:href="#n" id="E" cx="36.82843" cy="24.427683" r="1.2404949" fx="36.82843" fy="24.427683" gradientTransform="matrix(21.09444 0 0 22.22672 -740.0468 -518.5196)" gradientUnits="userSpaceOnUse"/>
    <radialGradient xlink:href="#n" id="D" cx="36.82843" cy="24.427677" r="1.2404949" fx="36.82843" fy="24.427671" gradientTransform="matrix(13.39869 0 0 22.22678 -456.6246 -518.5208)" gradientUnits="userSpaceOnUse"/>
  </defs>
  <path fill="url(#o)" d="M11.932427 17.403807a5.524272 2.2980971 0 1 1-11.04854352 0 5.524272 2.2980971 0 1 1 11.04854352 0z" color="#000" opacity=".42857145" overflow="visible" style="marker:none" transform="matrix(2.9019 0 0 3.80495 -4.8525 -32.31157)"/>
  <g transform="translate(-4.176277 -7.324567) scale(1.29618)">
    <path fill="url(#p)" stroke="#5d615f" stroke-linecap="round" stroke-linejoin="round" stroke-width=".57792485" d="M12.374369 24.665476a3.6239223 6.3639612 0 1 1-7.247845 0 3.6239223 6.3639612 0 1 1 7.247845 0z" color="#000" overflow="visible" style="marker:none" transform="matrix(1.41596 0 0 1.25856 -2.667614 -6.200669)"/>
    <path fill="url(#q)" d="M12.374369 24.665476a3.6239223 6.3639612 0 1 1-7.247845 0 3.6239223 6.3639612 0 1 1 7.247845 0z" color="#000" overflow="visible" style="marker:none" transform="translate(-.379902 -3.63468) scale(1.15453)"/>
    <path fill="#93958f" d="M12.374369 24.665476a3.6239223 6.3639612 0 1 1-7.247845 0 3.6239223 6.3639612 0 1 1 7.247845 0z" color="#000" overflow="visible" style="marker:none" transform="translate(1.232653 -1.829889) scale(1.08136)"/>
    <path fill="none" stroke="url(#r)" stroke-linecap="round" stroke-linejoin="round" stroke-width=".68416733" d="M12.374369 24.665476a3.6239223 6.3639612 0 1 1-7.247845 0 3.6239223 6.3639612 0 1 1 7.247845 0z" color="#000" opacity=".39560439" overflow="visible" style="marker:none" transform="matrix(1.1807 0 0 1.07697 -.608944 -1.721744)"/>
  </g>
  <path fill="url(#s)" fill-rule="evenodd" stroke="url(#t)" stroke-linecap="round" stroke-width="1.00000024" d="m9.4806798 18.24261 7.0896872-6.124209-.229135 25.082843-7.2042545-5.525057c-2.5204819-2.062215-2.9787516-11.256797.3437023-13.433577z" color="#000" overflow="visible" style="marker:none"/>
  <path fill="url(#u)" fill-rule="evenodd" d="m7.5383505 21.987453 4.0549655-3.039021-.251614 3.536074-3.9634698.660996.1601183-1.158049z" color="#000" overflow="visible" style="marker:none"/>
  <path fill="url(#v)" d="m8.203516 30.371178 4.440805 3.568341-.556825-2.427893-4.4764048-2.502739.5924248 1.362291z" color="#000" opacity=".7692308" overflow="visible" style="marker:none"/>
  <g transform="matrix(1.0969 0 0 1.50927 -4.216951 -12.11812)">
    <path fill="url(#w)" fill-rule="evenodd" stroke="url(#x)" stroke-linecap="round" stroke-width="1.47668338" d="M23.75 14c-1.93999.049168-3.736634.683436-5.25 1.6875C18.13319 15.264088 17.60375 15 17 15c-.0345 0-.087338.000854-.125 0-.027993-.0002-.068547-.002562-.09375 0C15.773145 15.102481 15 15.965001 15 17c0 .60375.264088 1.13319.6875 1.5C14.639107 20.080181 14 21.962011 14 24c0 2.033681.611921 3.921829 1.65625 5.5C15.243427 29.869532 15 30.401641 15 31c0 1.104.896 2.000001 2 2 .60375 0 1.13319-.264089 1.5-.6875C20.080181 33.360893 21.962011 34 24 34c2.03799 0 3.919819-.639107 5.5-1.6875.36681.423412.896251.687501 1.5.6875 1.103999 0 2-.895999 2-2 0-.60375-.264088-1.13319-.6875-1.5C33.360893 27.919819 34 26.03799 34 24c0-2.037989-.639107-3.919819-1.6875-5.5.423412-.36681.6875-.89625.6875-1.5 0-1.104-.896001-2-2-2-.0345 0-.087338.000854-.125 0-.027993-.0002-.068547-.002562-.09375 0-.504052.05124-.961951.298435-1.28125.65625-.006687-.004425-.024552.004409-.03125 0C27.894622 14.620029 26.025064 14 24 14c-.086173 0-.164349-.002171-.25 0z" color="#000" overflow="visible" style="marker:none"/>
    <path fill="url(#y)" fill-rule="evenodd" d="M23.75 14c-1.93999.049168-3.736634.683436-5.25 1.6875C18.13319 15.264088 17.60375 15 17 15c-.0345 0-.087338.000854-.125 0-.027993-.0002-.068547-.002562-.09375 0C15.773145 15.102481 15 15.965001 15 17c0 .60375.264088 1.13319.6875 1.5C14.639107 20.080181 14 21.962011 14 24c0 2.033681.611921 3.921829 1.65625 5.5C15.243427 29.869532 15 30.401641 15 31c0 1.104.896 2.000001 2 2 .60375 0 1.13319-.264089 1.5-.6875C20.080181 33.360893 21.962011 34 24 34c2.03799 0 3.919819-.639107 5.5-1.6875.36681.423412.896251.687501 1.5.6875 1.103999 0 2-.895999 2-2 0-.60375-.264088-1.13319-.6875-1.5C33.360893 27.919819 34 26.03799 34 24c0-2.037989-.639107-3.919819-1.6875-5.5.423412-.36681.6875-.89625.6875-1.5 0-1.104-.896001-2-2-2-.0345 0-.087338.000854-.125 0-.027993-.0002-.068547-.002562-.09375 0-.504052.05124-.961951.298435-1.28125.65625-.006687-.004425-.024552.004409-.03125 0C27.894622 14.620029 26.025064 14 24 14c-.086173 0-.164349-.002171-.25 0z" color="#000" overflow="visible" style="marker:none"/>
    <path fill="url(#z)" fill-rule="evenodd" stroke="url(#A)" stroke-linecap="round" stroke-width=".8383193" d="M18.75 9.375a9.375 9.375 0 1 1-18.75 0 9.375 9.375 0 1 1 18.75 0z" color="#000" overflow="visible" style="marker:none" transform="matrix(.84698 0 0 .91141 16.71027 15.44956)"/>
    <path fill="url(#B)" fill-rule="evenodd" d="M18.75 9.375a9.375 9.375 0 1 1-18.75 0 9.375 9.375 0 1 1 18.75 0z" color="#000" overflow="visible" style="marker:none" transform="matrix(.36727 0 0 .32 18.56254 21.125)"/>
    <path fill="#2e3436" fill-rule="evenodd" d="M17 16.5a.5.5 0 1 1-1 0 .5.5 0 1 1 1 0z" color="#000" overflow="visible" style="marker:none" transform="translate(-4.657679 -5.09375) scale(1.3125)"/>
    <path fill="#2e3436" fill-rule="evenodd" d="M17 16.5a.5.5 0 1 1-1 0 .5.5 0 1 1 1 0z" color="#000" overflow="visible" style="marker:none" transform="translate(15.22159 .25)"/>
    <path fill="#2e3436" fill-rule="evenodd" d="M17 16.5a.5.5 0 1 1-1 0 .5.5 0 1 1 1 0z" color="#000" overflow="visible" style="marker:none" transform="translate(15.22159 14.96875)"/>
    <path fill="#2e3436" fill-rule="evenodd" d="M17 16.5a.5.5 0 1 1-1 0 .5.5 0 1 1 1 0z" color="#000" overflow="visible" style="marker:none" transform="translate(-5.688929 8.8125) scale(1.375)"/>
  </g>
  <path fill="none" stroke="url(#C)" stroke-linecap="round" stroke-width=".99999982" d="M36.087935 32.865672c.917263-2.164764 1.48099-5.158083 1.48099-8.437989 0-3.279906-.563727-6.273225-1.48099-8.437989" color="#000" overflow="visible" style="marker:none"/>
  <path fill="none" stroke="url(#D)" stroke-linecap="round" stroke-width=".99999982" d="M39.838951 35.702755c1.225673-2.892618 1.978941-6.892375 1.978941-11.275077 0-4.382702-.753268-8.382459-1.978941-11.275077" color="#000" overflow="visible" style="marker:none"/>
  <path fill="none" stroke="url(#E)" stroke-linecap="round" stroke-width=".99999982" d="M43.487454 39.708054c1.661074-3.920178 2.681929-9.340788 2.681929-15.28038 0-5.939591-1.020855-11.360202-2.681929-15.2803792" color="#000" overflow="visible" style="marker:none"/>
</svg>