<?xml version="1.0" encoding="UTF-8"?>
<svg xmlns="http://www.w3.org/2000/svg" height="48" width="48" xmlns:xlink="http://www.w3.org/1999/xlink">
<defs>
<linearGradient id="h" y2="45.4" gradientUnits="userSpaceOnUse" y1="10.5" x2="53.6" x1="15.74">
<stop stop-color="#ff8b8b" offset="0"/>
<stop stop-color="#ec1b1b" offset="1"/>
</linearGradient>
<linearGradient id="f" y2="35.96" gradientUnits="userSpaceOnUse" y1="18.1" x2="41" x1="24">
<stop stop-color="#c00" offset="0"/>
<stop stop-color="#b30000" offset="1"/>
</linearGradient>
<linearGradient id="g" y2="38.19" gradientUnits="userSpaceOnUse" y1="10.54" x2="32.59" x1="15.16">
<stop stop-color="#ff0202" stop-opacity=".3" offset="0"/>
<stop stop-color="#ff9b9b" stop-opacity=".8" offset="1"/>
</linearGradient>
<radialGradient id="d" gradientUnits="userSpaceOnUse" cy="10.67" cx="16.75" gradientTransform="matrix(4.155 0 0 3.199-52.85-23.51)" r="21.25">
<stop stop-color="#fff" offset="0"/>
<stop stop-color="#fff" stop-opacity="0" offset="1"/>
</radialGradient>
<radialGradient id="c" gradientUnits="userSpaceOnUse" cy="41.63" cx="24.24" gradientTransform="matrix(1 0 0 .3027 0 29.03)" r="18.5">
<stop offset="0"/>
<stop stop-opacity="0" offset="1"/>
</radialGradient>
<radialGradient id="a" gradientUnits="userSpaceOnUse" cy="328.2" cx="341.4" gradientTransform="matrix(.1518 0 0 .08065 -28.53 -6.355)" r="316.9">
<stop stop-color="#fff" offset="0"/>
<stop stop-color="#b8b8b8" offset="1"/>
</radialGradient>
<radialGradient id="i" xlink:href="#a" gradientUnits="userSpaceOnUse" cy="264.6" cx="361.2" gradientTransform="matrix(.1198 0 0 .1858 -17.48 -34.77)" r="316.9"/>
</defs>
<ellipse opacity=".63" rx="18.5" ry="5.6" cy="41.63" cx="24.24" fill="url(#c)"/>
<path stroke="#800" d="m32.69 0.49 12.82 13.1v17.89l-12.65 12h-17.43l-12.93-12.84v-17.2l13.1-12.96z" fill="url(#f)"/>
<g stroke="url(#g)" stroke-width="1.2">
<g id="b" stroke-linejoin="round" fill="url(#i)">
<path d="m25.72 26.57c0.128 0 0.235-0.174 0.235-0.384l1.06-14.4c0-0.209-0.107-0.369-0.235-0.369h-5.685c-0.128 0-0.235 0.159-0.235 0.369l1.06 14.4c0 0.209 0.107 0.384 0.235 0.384z"/>
<circle cy="31.3" cx="24" r="2.3" style=""/>
</g>
</g>
<path opacity=".8" stroke="url(#h)" d="m32.23 1.5 12.25 12.42v17.1l-11.86 11.45h-16.77l-12.36-12.28v-16.36l12.51-12.34z" fill="none"/>
<use stroke-width=".4" stroke="#fff" xlink:href="#b" stroke-opacity=".9"/>
<path opacity=".3" d="m2.75 13.56v17l2.94 2.91c16.76 0.06 16.47-13 39.56-11.88v-7.9l-12.69-12.94h-16.87z" fill="url(#d)"/>
</svg>