<?xml version="1.0" encoding="UTF-8"?>
<svg xmlns="http://www.w3.org/2000/svg" xmlns:xlink="http://www.w3.org/1999/xlink" width="48" height="48">
  <defs>
    <linearGradient id="d">
      <stop offset="0"/>
      <stop offset="1" stop-color="#fff" stop-opacity=".66"/>
    </linearGradient>
    <linearGradient id="b">
      <stop offset="0"/>
      <stop offset="1" stop-color="#fff" stop-opacity="0"/>
    </linearGradient>
    <linearGradient id="a">
      <stop offset="0" stop-color="#adb0a8"/>
      <stop offset="1" stop-color="#464744"/>
    </linearGradient>
    <linearGradient id="c">
      <stop offset="0" stop-color="#fff"/>
      <stop offset="1" stop-color="#d3d7cf"/>
    </linearGradient>
    <linearGradient id="i" x1="55.614" x2="55.772" y1="157.566" y2="140.313" gradientTransform="matrix(-1 0 0 1 94 -121)" gradientUnits="userSpaceOnUse" xlink:href="#a"/>
    <linearGradient id="h" x1="49.43" x2="49.667" y1="112.95" y2="115.137" gradientTransform="matrix(-1 0 0 1 90.99 -97.262)" gradientUnits="userSpaceOnUse" xlink:href="#b"/>
    <radialGradient id="g" cx="64.227" cy="147.994" r="8.75" fx="64.227" fy="147.994" gradientTransform="matrix(-.22266 -.99627 -2.13 .47604 336.946 20.852)" gradientUnits="userSpaceOnUse" xlink:href="#c"/>
    <radialGradient id="f" cx="64.227" cy="147.994" r="8.75" fx="64.227" fy="147.994" gradientTransform="matrix(-.22266 -.99627 -2.13 .47604 354.946 20.852)" gradientUnits="userSpaceOnUse" xlink:href="#c"/>
    <linearGradient id="e" x1="24.476" x2="23.75" y1="13.659" y2="36" gradientTransform="matrix(-1 0 0 1 46 0)" gradientUnits="userSpaceOnUse" xlink:href="#d"/>
    <radialGradient id="j" cx="64.227" cy="147.994" r="8.75" fx="64.227" fy="147.994" gradientTransform="matrix(-.22266 -.99627 -2.13 .47604 371.946 20.852)" gradientUnits="userSpaceOnUse" xlink:href="#c"/>
    <linearGradient id="k" x1="54" x2="54" y1="132.5" y2="145" gradientTransform="rotate(180 46.5 84.5)" gradientUnits="userSpaceOnUse" xlink:href="#a"/>
  </defs>
  <g color="#000">
    <path fill="none" stroke="url(#e)" stroke-linecap="square" stroke-linejoin="round" stroke-width="3" d="M 4.5 13.5 L 4.5 34.5 L 22 24 L 4.5 13.5 z M 22.5 13.5 L 22.5 34.5 L 39.5 24.3125 L 39.5 34.5 L 44.5 34.5 L 44.5 13.5 L 39.5 13.5 L 39.5 23.6875 L 22.5 13.5 z" opacity=".15" style="marker:none"/>
    <path fill="url(#f)" fill-rule="evenodd" d="M 22.499943,13.5 L 39.999943,24 L 22.499943,34.5 L 22.499943,13.5 z" style="marker:none"/>
    <path fill="url(#g)" fill-rule="evenodd" d="M 4.4999427,13.5 L 21.999943,24 L 4.4999427,34.5 L 4.4999427,13.5 z" style="marker:none"/>
    <path fill="url(#h)" fill-rule="evenodd" d="M 4.4999427,13.5 L 5.6874427,14.21875 L 4.4999427,14.09375 L 4.4999427,13.5 z M 22.499943,13.75 L 22.968693,13.78125 L 26.937443,16.15625 L 22.499943,15.75 L 22.499943,13.75 z" opacity=".07" style="marker:none"/>
    <path fill="none" stroke="url(#i)" stroke-linecap="square" stroke-linejoin="round" d="M 22.499943,13.5 L 39.999943,24 L 22.499943,34.5 L 22.499943,13.5 z M 4.4999427,13.5 L 21.999943,24 L 4.4999427,34.5 L 4.4999427,13.5 z" style="marker:none"/>
    <path fill="#fff" fill-rule="evenodd" d="M 22.999943,14.375 L 39.031193,24 L 22.999943,33.625 L 22.999943,14.375 z M 4.9999427,14.375 L 21.031193,24 L 4.9999427,33.625 L 4.9999427,14.375 z M 23.999943,16.15625 L 23.999943,31.84375 L 37.093693,24 L 23.999943,16.15625 z M 5.9999427,16.15625 L 5.9999427,31.84375 L 19.093693,24 L 5.9999427,16.15625 z" style="marker:none"/>
    <path fill="#fff" fill-rule="evenodd" d="M33.587969 21.78401L24.062843 16.1875 24.062843 22.230393 33.587969 21.78401zM18.278833 23.207107L6.0003427 16.1875 6.0003427 24.05882 18.278833 23.207107z" opacity=".561" style="marker:none"/>
    <path fill="url(#j)" fill-rule="evenodd" d="M 39.5,13.499999 L 44.5,13.499999 L 44.5,34.499999 L 39.5,34.499999 L 39.5,13.499999 z" style="marker:none"/>
    <path fill="none" stroke="#fff" stroke-linecap="square" d="M-43.5 -33.5H-40.5V-14.5H-43.5z" style="marker:none" transform="scale(-1)"/>
    <path fill="none" stroke="url(#k)" stroke-linecap="square" stroke-linejoin="round" d="M 44.5004,34.499999 L 44.5004,13.499999 L 39.5004,13.499999 L 39.5004,34.499999 L 44.5004,34.499999 z" style="marker:none"/>
    <path fill="#fff" fill-rule="evenodd" d="M 41,22 L 42.956737,21.837049 L 42.956737,15.031146 L 40.923805,15.031146 L 41,22 z" opacity=".561" style="marker:none"/>
  </g>
</svg>
