<svg 
  xmlns="http://www.w3.org/2000/svg" 
  xmlns:xlink="http://www.w3.org/1999/xlink" 
  width="1em" 
  height="1em" 
  preserveAspectRatio="xMidYMid meet" 
  viewBox="0 0 24 24" 
  style="-ms-transform: rotate(360deg); -webkit-transform: rotate(360deg); transform: rotate(360deg);"
 >
   <path fill="currentColor" fill-rule="evenodd" d="M7 16h10a1 1 0 0 1 0 2H7a1 1 0 0 1 0-2Zm5.973-9.565l4.83 6.048c.359.448.214 1.054-.324 1.353a1.34 1.34 0 0 1-.648.164H7.169C6.523 14 6 13.563 6 13.024c0-.193.068-.381.196-.541l4.831-6.048c.358-.449 1.084-.57 1.622-.271c.128.071.238.163.324.27Z"/>
 </svg>